<svg width="138" height="138" xmlns="http://www.w3.org/2000/svg" fill="none">

 <g>
  <title>Layer 1</title>
  <path id="svg_1" fill="#120533" d="m196.85,112.22l15.7,0l0,-34.59l28.45,0l0,-13.99l-28.45,0l0,-21.95l35.94,0l0,-13.98l-51.64,0l0,84.51zm82.67,-58.6c-16.31,0 -29.81,11.65 -29.81,29.68s13.5,29.93 29.81,29.93s29.81,-11.9 29.81,-29.93s-13.62,-29.68 -29.81,-29.68zm0,45c-8.22,0 -15,-6 -15,-15.33c0,-9.08 6.74,-15 15,-15s15,5.88 15,15c-0.04,9.33 -6.78,15.34 -15,15.34l0,-0.01zm109.81,-65.61l-14.84,0l0,21.83l-10.42,0l0,12.02l10.42,0l0,45.27l14.84,0l0,-45.27l12.15,0l0,-12.02l-12.15,0l0,-21.83zm90.03,20.61c-4.54,0 -12.63,1.35 -18,10.79c-3.19,-7 -9.2,-10.18 -18.28,-10.67c-5.39,0 -13.24,2.58 -16.43,9.57l0,-8.47l-15,0l0,57.29l15,0l0,-30.55c0,-9.81 5.88,-13.37 12,-13.37c5.88,0 10.42,4.42 10.55,12.39l0,31.53l15,0l0,-30.55c0,-8.71 4.91,-13.37 11.65,-13.37c6.14,0 10.8,4.54 10.8,12.76l0,31.16l14.84,0l0,-32.75c-0.05,-16.81 -8.27,-25.76 -22.13,-25.76zm79.23,8.34c-4.17,-6.38 -12.63,-8.34 -17.78,-8.34c-15.09,0 -29.2,11.4 -29.2,29.8s14.11,29.81 29.2,29.81c5.64,0 14.1,-2.58 17.78,-8.46l0,7.36l15,0l0,-57.29l-15,0l0,7.12zm-15.7,36.92c-8.22,0 -15.82,-6.26 -15.82,-15.46c0,-9.2 7.6,-15.45 15.82,-15.45c7.85,0 15.7,5.52 15.7,15.45s-7.6,15.46 -15.7,15.46zm67.21,-65.87l-14.84,0l0,21.83l-10.42,0l0,12.02l10.42,0l0,45.27l14.84,0l0,-45.27l12.15,0l0,-12.02l-12.15,0l0,-21.83zm30.91,-9.32c-5.27,0 -9.69,3.92 -9.69,8.95c0,5.03 4.42,9.08 9.69,9.08a9,9 0 0 0 0,-18l0,-0.03zm7.36,31.15l-14.84,0l0,57.28l14.84,0l0,-57.28zm56.05,38.4a14.757,14.757 0 0 1 -11.9,5.76c-8.34,0 -16.06,-6.38 -16.06,-15.7s7.72,-15.21 16.06,-15.21a14.66,14.66 0 0 1 11.9,5.64l11.9,-9c-5.4,-7.12 -14.23,-11.16 -23.8,-11.16c-16.43,0 -30.91,11.65 -30.91,29.68s14.48,30.05 30.91,30.05c9.69,0 18.53,-4.17 23.92,-11.28l-12.02,-8.78zm-384.51,-38.4l0,57.29l15,0l0,-44.16l13.55,0c3.84,0 6.95,-3.39 6.95,-7.58l0,-5.55l-35.5,0z"/>
  <path id="svg_2" fill="#617BFF" d="m102.93,0l-102.93,0l0,137.04l34.31,0l0,-102.73l102.93,0l0,-34.31l-34.31,0z"/>
  <path id="svg_3" fill="#617BFF" d="m102.93,0l-102.93,0l0,137.04l34.31,0l0,-102.73l102.93,0l0,-34.31l-34.31,0z"/>
  <path id="svg_4" fill="#617BFF" d="m68.82,102.73l34.11,0l0,34.31l1.2,0a33.107,33.107 0 0 0 33.09,-33.11l0,-35.31l-68.4,0l0,34.11z"/>
 </g>
</svg>