<?xml version="1.0" encoding="utf-8"?>
<!DOCTYPE svg PUBLIC "-//W3C//DTD SVG 20010904//EN" "http://www.w3.org/TR/2001/REC-SVG-20010904/DTD/svg10.dtd">
<svg version="1.0" xmlns="http://www.w3.org/2000/svg" width="606px" height="226px" viewBox="0 0 606 226" preserveAspectRatio="xMidYMid meet">
 <g fill="#d5c4b9">
  <path d="M102.5 223.6 c-6.3 -2 -18.6 -7.9 -24.8 -11.9 -3.2 -2.1 -6.3 -3.4 -7.2 -3.1 -1.1 0.5 -1.5 -0.1 -1.5 -1.8 0 -2 3.1 -4.5 17.9 -14.6 13.8 -9.3 18.7 -12.2 21.2 -12.2 l3.2 0 -0.6 9.8 -0.7 9.7 16.6 0 16.5 0 -0.6 -9.2 -0.7 -9.3 3.5 0 c2.8 0 5.6 1.4 12.4 6.1 4.8 3.3 13 8.8 18.1 12.1 7.2 4.8 9.2 6.6 9.2 8.4 0 2 -0.3 2.2 -2.2 1.5 -1.7 -0.6 -3.9 0.3 -10 4 -4.3 2.6 -11.3 6.2 -15.6 8.1 l-7.7 3.3 -21.5 0.2 c-15.5 0.2 -22.6 -0.1 -25.5 -1.1z"/>
  <path d="M413.8 197.3 c-3.6 -0.9 -2 -3.3 2.2 -3.3 3.3 0 4 0.3 4 2 0 2 -2 2.4 -6.2 1.3z"/>
  <path d="M361.2 185.9 c0.3 -3 0.7 -3.4 3.7 -3.7 3.2 -0.3 3.3 -0.3 1.8 1.8 -0.8 1.2 -2.5 2.9 -3.7 3.7 -2.1 1.5 -2.1 1.4 -1.8 -1.8z"/>
  <path d="M595 165.5 c0 -2.2 0.4 -2.5 3.8 -2.5 l3.7 0.1 -2.8 2.4 c-3.6 3.2 -4.7 3.1 -4.7 0z"/>
  <path d="M557 161.2 c0 -3.6 1.6 -5.2 5.2 -5.2 2.8 0 2.8 0.1 1.3 2.4 -0.9 1.4 -2.7 3.2 -4.1 4.1 -2.3 1.5 -2.4 1.5 -2.4 -1.3z"/>
  <path d="M575.7 156 c-0.7 -2.8 0.3 -6 1.9 -6 1 0 1.4 1.3 1.4 4 0 4.3 -2.3 5.7 -3.3 2z"/>
  <path d="M603 154 c0 -3.2 1.4 -4 2.4 -1.5 0.6 1.8 -0.2 4.5 -1.5 4.5 -0.5 0 -0.9 -1.3 -0.9 -3z"/>
  <path d="M391.4 149.6 c-0.3 -0.8 -0.4 -2.4 -0.2 -3.6 0.3 -2 0.5 -2 4.3 1.4 l4 3.5 -3.8 0.1 c-2.4 0 -4 -0.5 -4.3 -1.4z"/>
  <path d="M241 144.5 c0 -4.4 0.9 -4.4 3.8 0 l2.2 3.5 -3 0 c-2.8 0 -3 -0.3 -3 -3.5z"/>
  <path d="M577 146.9 c0 -3.5 10.5 -9.1 15.3 -8.1 3.3 0.7 1.9 3.2 -1.8 3.2 -1.9 0 -3.5 0.5 -3.5 1 0 0.6 -0.6 1 -1.3 1 -0.7 0 -1.9 0.9 -2.7 2 -1.5 2.1 -6 2.8 -6 0.9z"/>
  <path d="M598.4 146.6 c-0.3 -0.8 -0.4 -2.5 -0.2 -3.8 l0.3 -2.3 2.8 2.7 c1.5 1.5 2.7 3.2 2.7 3.8 0 1.5 -5 1.2 -5.6 -0.4z"/>
  <path d="M276.6 127.8 c-0.3 -1.3 -0.6 -8.1 -0.6 -15.3 0 -14.2 0.5 -17.5 2.6 -17.5 1.1 0 1.4 3.3 1.4 17.5 0 14.2 -0.3 17.5 -1.4 17.5 -0.7 0 -1.6 -1 -2 -2.2z"/>
  <path d="M586.8 128.3 c-1 -0.2 -1.8 -1.1 -1.8 -1.9 0 -1 1.4 -1.4 5.5 -1.4 4 0 5.5 0.4 5.5 1.4 0 2.1 -4.8 3.1 -9.2 1.9z"/>
  <path d="M231 115.5 c0 -3.3 0.2 -3.5 3.2 -3.5 2.5 0 2.9 0.3 2 1.2 -0.7 0.7 -1.2 2.2 -1.2 3.5 0 1.6 -0.6 2.3 -2 2.3 -1.6 0 -2 -0.7 -2 -3.5z"/>
  <path d="M603 114 c0 -1.6 0.4 -3 0.9 -3 1.3 0 2.1 2.7 1.5 4.5 -1 2.5 -2.4 1.7 -2.4 -1.5z"/>
  <path d="M501 109.5 c0 -2.4 0.5 -3.5 1.5 -3.5 0.8 0 1.5 0.7 1.5 1.5 0 0.8 1.1 1.7 2.5 2.1 4.1 1 3.1 3.4 -1.5 3.4 -3.9 0 -4 -0.1 -4 -3.5z"/>
  <path d="M459 110.3 c0 -3.4 1.2 -6.3 2.6 -6.3 1 0 1.4 1.3 1.4 4 0 3.3 -0.3 4 -2 4 -1.2 0 -2 -0.7 -2 -1.7z"/>
  <path d="M599 104.3 l0.1 -3.8 2.4 2.8 c3.2 3.6 3.1 4.7 0 4.7 -2.2 0 -2.5 -0.4 -2.5 -3.7z"/>
  <path d="M310 98.5 c0 -4.7 1.2 -5.8 3 -2.6 1.8 3.4 1.3 7.1 -1 7.1 -1.7 0 -2 -0.7 -2 -4.5z"/>
  <path d="M390.6 97.4 c-0.9 -7.1 -0.7 -9.4 0.8 -9.4 1.5 0 2.1 1.7 3.1 9.3 0.7 4.2 0.5 4.7 -1.3 4.7 -1.5 0 -2.1 -0.9 -2.6 -4.6z"/>
  <path d="M586 100.6 c0 -1.6 2.5 -2.4 5.3 -1.8 3.2 0.8 1.9 3.2 -1.8 3.2 -2.4 0 -3.5 -0.5 -3.5 -1.4z"/>
  <path d="M460 95.8 c0 -4.8 1 -7.8 2.6 -7.8 1 0 1.4 1.5 1.4 5.5 0 4.8 -0.2 5.5 -2 5.5 -1.6 0 -2 -0.7 -2 -3.2z"/>
  <path d="M586.8 88.3 c-1 -0.2 -1.8 -1.1 -1.8 -1.9 0 -1 1.3 -1.4 5 -1.4 3.6 0 5 0.4 5 1.4 0 2 -4.1 3 -8.2 1.9z"/>
  <path d="M596 84.5 c0 -2.2 0.4 -2.5 3.8 -2.5 l3.7 0.1 -2.8 2.4 c-3.6 3.2 -4.7 3.1 -4.7 0z"/>
  <path d="M242 83 c0 -3.4 2.6 -5.2 4.1 -2.9 1.3 2.1 1.1 2.5 -1.6 4.3 -2.5 1.6 -2.5 1.6 -2.5 -1.4z"/>
  <path d="M578.8 83.4 c-3.5 -4 -4.3 -13.4 -1.2 -13.4 1 0 1.4 1.2 1.4 3.9 0 2.2 0.5 4.1 1.1 4.3 0.6 0.2 0.9 1.9 0.7 3.7 -0.3 3.2 -0.4 3.3 -2 1.5z"/>
  <path d="M528.8 78.3 c-3.6 -0.9 -2 -3.3 2.2 -3.3 3.3 0 4 0.3 4 2 0 2 -2 2.4 -6.2 1.3z"/>
  <path d="M603 74 c0 -3.2 1.4 -4 2.4 -1.5 0.6 1.8 -0.2 4.5 -1.5 4.5 -0.5 0 -0.9 -1.3 -0.9 -3z"/>
  <path d="M447.8 75.3 c-3.6 -0.9 -2 -3.3 2.2 -3.3 3.3 0 4 0.3 4 2 0 2 -2 2.4 -6.2 1.3z"/>
  <path d="M585 60.6 c0 -1.7 4.2 -2.8 7.5 -2 4.6 1.1 3 3.4 -2.5 3.4 -3.6 0 -5 -0.4 -5 -1.4z"/>
  <path d="M298.8 52.3 c-3.6 -0.9 -2 -3.3 2.2 -3.3 3.3 0 4 0.3 4 2 0 2 -2 2.4 -6.2 1.3z"/>
  <path d="M367 45 c0 -2.7 0.2 -2.9 1.9 -1.8 1.5 0.9 2.3 0.9 3.5 -0.1 1.4 -1.2 1.6 -1 1.6 1.8 0 2.9 -0.2 3.1 -3.5 3.1 -3.2 0 -3.5 -0.2 -3.5 -3z"/>
  <path d="M415 30.6 c0 -1.6 3.2 -2.6 6 -1.9 3.7 1 2.3 3.3 -2 3.3 -2.7 0 -4 -0.4 -4 -1.4z"/>
 </g>
 <g fill="#f29634">
  <path d="M7.1 198.8 c-4.9 -18.4 -7.1 -28.1 -6.7 -30.1 0.3 -1.7 4.5 -14.1 9.2 -27.6 6.8 -19.6 8.3 -25 7.4 -26.4 -0.8 -1.3 -0.7 -1.9 0.2 -2.2 8.6 -3.2 48.1 -14.5 50.6 -14.5 3 0 3.2 0.2 3.2 3.3 0 1.8 -1.1 4.8 -2.5 6.9 -1.4 2 -2.5 4.2 -2.5 4.7 0 0.6 -0.8 1.5 -1.8 2 -1 0.5 -2.4 2.1 -3.1 3.5 -1.3 2.3 -1.1 2.8 1.7 6.3 3.7 4.5 4.3 5.1 10.3 10.3 2.5 2.2 5.4 4 6.3 4 0.9 0 1.6 0.4 1.6 1 0 1.1 15.9 6.3 17.6 5.6 0.6 -0.2 2.3 -4.1 3.8 -8.6 2.1 -6.6 2.6 -10.2 2.7 -18.6 0 -5.7 -0.4 -11.9 -0.9 -13.7 -0.6 -1.7 -1.3 -9.4 -1.6 -17 -0.3 -8.8 -1 -14.4 -1.8 -15.4 -0.6 -0.8 -12.9 -10.3 -27.2 -21 -54.1 -40.6 -58.6 -44.2 -58.6 -47.3 l0 -2.8 18.3 7.5 c10 4.1 27 11 37.8 15.4 l19.7 8 36.8 -0.3 36.9 -0.3 18.5 -7.9 c10.2 -4.3 26 -10.9 35.3 -14.7 l16.7 -6.8 0 2.9 c0 3.4 -2.7 5.6 -49 40.3 -16.8 12.6 -32.1 24.4 -34.1 26.2 l-3.6 3.2 -1.2 15.4 c-2.7 33.9 -2.8 32.8 1.6 49.1 1.9 7.2 3.2 7.5 14.8 4.1 l9 -2.6 9.4 -9.9 9.3 -9.8 -3.5 -4.3 c-5.5 -6.8 -7.7 -10.9 -7.7 -14.9 0 -3.8 0 -3.8 4 -3.8 2.2 0 6.3 0.9 9.2 2 7.5 2.9 39.5 12 42.1 12 1.9 0 2 0.1 0.6 1.6 -1.5 1.4 -1.4 2.3 0.7 9.7 3.4 12.1 6.8 20.1 10.4 24.5 3.5 4.3 8 17.3 8 22.8 0 3 -1.9 11.8 -6.1 27.7 -0.7 2.7 -1.5 3.7 -2.4 3.3 -1.4 -0.5 -1.9 0.7 -7 18.7 -1.3 4.5 -2 5.7 -3.3 5.3 -0.9 -0.3 -4.4 -1.2 -7.7 -2.1 -3.3 -0.9 -14.5 -4.4 -25 -7.7 -20.4 -6.4 -23.1 -7.8 -43 -21.8 -6 -4.3 -12.1 -8.3 -13.4 -9 -2.2 -1.1 -2.3 -1.1 -1.9 1.3 l0.5 2.4 -5.1 -2.6 c-4.4 -2.3 -6.2 -2.6 -14.6 -2.6 -7.6 0.1 -10.4 0.5 -13.7 2.1 l-4.2 2.1 -0.3 -2.3 c-0.3 -2 -2.1 -1 -19.1 10.7 -18.7 12.8 -18.9 12.9 -34 17.8 -16.5 5.4 -38.3 12.1 -39.6 12.1 -0.4 0 -4 -12.2 -8 -27.2z m64.3 -16.1 c0.9 -7 1.4 -13.3 1 -13.9 -0.6 -1 -18.1 -0.5 -19.1 0.6 -0.3 0.2 1 3 2.8 6.2 5.7 10.4 12.7 20.9 13.5 20.2 0.1 -0.2 0.9 -6.1 1.8 -13.1z m114.8 5.8 c1.2 -2.2 3.8 -6.5 5.8 -9.5 2 -3 4 -6.4 4.4 -7.6 0.6 -1.9 0.2 -2.2 -4.6 -2.7 -2.9 -0.4 -7.2 -0.7 -9.6 -0.7 l-4.3 0 0.6 7.3 c0.3 3.9 1.1 10.3 1.7 14.1 1.2 7.8 1.6 7.7 6 -0.9z"/>
 </g>
 <g fill="#5d6eee">
  <path d="M498.5 180.3 c-1.1 -0.3 -6 -1.9 -10.9 -3.5 -6.3 -2.1 -9.2 -2.6 -9.9 -1.9 -1.8 1.8 -2.7 1.3 -2.7 -1.5 0 -1.6 1.7 -4.5 4.4 -7.7 4.8 -5.7 12.2 -16.8 13.1 -19.8 0.4 -1.2 1.6 -1.9 3 -1.9 1.8 0 2.3 0.4 1.9 1.5 -0.9 2.2 8 1.9 13.3 -0.5 8.9 -4 17.6 -14.8 19.7 -24.6 l0.7 -3.1 -11.3 -0.7 c-6.2 -0.3 -12.3 -0.9 -13.5 -1.2 -1.7 -0.5 -2.3 -0.2 -2.3 1 0 0.9 -0.7 1.6 -1.5 1.6 -1.2 0 -1.5 -1.3 -1.5 -5.5 0 -4.2 0.3 -5.5 1.5 -5.5 0.8 0 1.5 0.6 1.5 1.4 0 1.1 2.8 1.6 12.5 2.1 14.5 0.9 19.9 -0.2 25.2 -4.8 7.5 -6.6 6.2 -19.5 -2.4 -24.8 -3.2 -2 -5 -2.4 -11.3 -2.3 -4.2 0.1 -9.5 0.9 -11.9 1.8 -6.1 2.3 -15.1 9.2 -15.1 11.6 0 1.3 -0.7 2 -1.8 2 -1.3 0 -2.3 -1.2 -3.1 -4.2 -2.2 -7.2 -9.8 -21 -15.1 -27.1 -3.6 -4.3 -5 -6.7 -5 -8.9 0 -2.4 0.3 -2.8 1.3 -2 1 0.9 3.3 0.4 8.8 -1.6 11.6 -4.4 18.7 -5.6 29.7 -5 25.3 1.4 47.2 15.9 57.8 38.3 2.3 5 4.8 11.1 5.4 13.7 0.9 3.3 1.6 4.5 2.6 4.1 2 -0.7 1.8 2.6 -0.5 7.7 -1.8 4 -1.8 4.5 -0.3 8.6 0.9 2.4 2 4.4 2.4 4.4 0.4 0 0.8 1.1 0.8 2.5 0 2.1 -0.4 2.4 -2.3 2 -2 -0.6 -2.4 0 -4 6.3 -2.6 10.1 -9.1 20.4 -18.5 29.4 -13.8 13.2 -28.5 18.9 -48.1 18.7 -5.8 -0.1 -11.5 -0.4 -12.6 -0.6z"/>
 </g>
 <g fill="#e17f26">
  <path d="M68.5 202.6 c-8.8 -12.5 -21.5 -33.4 -21.5 -35.4 0 -1.7 27.4 -3 28.4 -1.4 0.9 1.5 0.7 9.5 -0.3 16.2 -0.6 3.6 -1.6 10 -2.2 14.3 -1.1 7.5 -2.3 9.2 -4.4 6.3z"/>
  <path d="M177.7 194.8 c-2 -11.4 -3.6 -28 -2.9 -29.2 0.5 -0.9 26.7 0 28.3 1 0.5 0.3 0 1.8 -1.1 3.4 -1.1 1.5 -2.3 3.6 -2.7 4.7 -2 4.8 -17.4 28.5 -19 29 -0.7 0.3 -1.7 -3 -2.6 -8.9z"/>
  <path d="M99.4 150 c-1.1 -0.4 -2.8 -2.6 -3.9 -4.9 -1 -2.3 -2.2 -4.1 -2.7 -4.1 -0.5 0 -2.6 0.9 -4.8 2 -4.7 2.4 -7.3 2.5 -9.4 0.5 -0.8 -0.8 -2.1 -1.5 -2.9 -1.5 -0.7 0 -2.4 -1.2 -3.8 -2.6 -1.3 -1.5 -3.7 -3.5 -5.3 -4.4 -1.5 -1 -3.6 -2.9 -4.5 -4.3 -0.9 -1.4 -2.9 -4.1 -4.4 -6.1 -3.3 -4.1 -3.1 -5.7 1.5 -10.6 1.8 -1.9 3.7 -4.4 4.3 -5.5 0.6 -1.1 1.9 -3.2 2.9 -4.7 2 -3.1 1.9 -3.2 -1.9 -1.8 -2.5 1 -2.6 0.9 -1 -1.2 0.8 -1.3 3.5 -3.9 5.9 -5.8 2.4 -1.9 9.9 -8 16.6 -13.5 19.4 -15.9 18.5 -15.8 19.4 -2.3 0.4 5.1 0.8 12 1.1 15.3 0.2 3.3 0.8 9.1 1.4 12.9 1.5 10.6 0.3 23.7 -2.9 33.6 -1.6 4.6 -2.6 8.8 -2.4 9.2 0.6 1 -0.5 0.9 -3.2 -0.2z"/>
  <path d="M150 149.5 c0 -0.8 -0.6 -1.5 -1.4 -1.5 -1.5 0 -1.7 -0.6 -4.5 -12.5 -2.2 -9 -2.7 -24.3 -1.3 -35 0.6 -3.8 1.3 -11.9 1.7 -18 0.6 -9.9 0.9 -11.2 3 -12.7 2.3 -1.8 2.5 -1.7 10.2 4.4 4.3 3.4 12.3 10 17.8 14.7 5.5 4.7 10.1 8.5 10.1 8.6 0.1 0 0.5 1 0.8 2.2 0.6 1.8 0.4 2 -1.4 1.6 -1.1 -0.3 -2 -0.2 -2 0.1 0 1.7 3.4 7 8.1 12.6 2.8 3.3 4.9 6.6 4.7 7.3 -0.3 0.7 -4.9 6 -10.4 11.8 -11.4 12.2 -13.6 13.4 -20.2 10 -2.3 -1.2 -4.6 -2.1 -5.1 -2.1 -0.5 0 -2 1.9 -3.3 4.2 -2.4 4.3 -6.8 7.1 -6.8 4.3z"/>
 </g>
 <g fill="#2059e9">
  <path d="M285.5 214.4 c-1.1 -0.3 -6.9 -1.7 -13 -3.1 -11.2 -2.6 -27.5 -9.3 -27.5 -11.3 0 -0.6 1.6 -7.5 3.6 -15.3 l3.5 -14.2 -3.6 -11.4 c-2 -6.2 -3.9 -12.1 -4.2 -13 -0.3 -0.9 2.4 1.6 6 5.5 13.3 14.4 27 20.5 45.4 20.5 25.9 -0.1 49.4 -18.4 56.7 -44.3 4.4 -15.7 2 -32.2 -6.8 -47.2 -2.3 -3.9 -11.1 -13.1 -16.6 -17.4 -7.4 -5.7 -23.5 -11.2 -32.9 -11.2 -15.3 0 -32.5 7.3 -43.8 18.6 -4.9 4.9 -7.1 7.8 -6.7 8.8 0.4 1.1 0 1.6 -1.5 1.6 -2 0 -2.1 -0.5 -2.1 -8.2 0.1 -4.6 0.7 -11.9 1.6 -16.3 2.6 -14 2.7 -17.6 1 -23.4 -2.5 -8.6 -1.8 -16.8 1.1 -11.7 0.7 1.2 2.7 0.7 11.7 -2.9 14.9 -6 26.2 -7.9 42.4 -7.2 24.6 1 45.8 10 64.2 27.3 3.9 3.7 7.1 6 7.5 5.4 0.3 -0.5 1 -1 1.5 -1 2 0 19 28.5 19 32 0 0.5 -0.7 1 -1.6 1 -0.9 0 -1.3 0.6 -1 1.3 1.7 4 3.7 12.6 5.2 22.1 1.5 9.6 1.6 12.4 0.5 22.1 -0.6 6.2 -1.8 13.6 -2.6 16.6 -1.3 4.7 -1.2 5.5 0.1 7 1.4 1.5 1.1 2.6 -3.5 11.5 -2.8 5.5 -7.7 13.6 -10.9 18.2 -4.6 6.7 -6.1 8.1 -7.8 7.7 -1.5 -0.3 -3.2 0.8 -6.5 4.1 -10.4 10.8 -28.6 20.6 -46.2 24.9 -10.4 2.5 -27.7 4.1 -32.2 2.9z"/>
  <path d="M277.4 129.7 c-0.2 -0.7 -0.3 -8.9 -0.2 -18.2 l0.3 -17 16.9 -0.3 c11.1 -0.2 17.3 0.1 18 0.8 1.6 1.6 2.1 31.1 0.7 33.9 -1.1 2 -1.9 2.1 -18.2 2.1 -12.9 0 -17.1 -0.3 -17.5 -1.3z"/>
 </g>
 <g fill="#2d73b5">
  <path d="M410.3 197 c-4 -0.4 -10.5 -1.8 -14.5 -3 -7.5 -2.3 -26.8 -11.5 -26.8 -12.8 0 -0.4 2.7 -4.5 6 -9.2 3.3 -4.7 8.3 -12.9 11 -18.3 l5.1 -9.8 2.9 2.5 c3.4 2.8 24.5 15.6 25.8 15.6 0.5 0 5.8 -2.9 11.8 -6.5 17.6 -10.5 22.7 -16.8 25.8 -32 1.8 -9.3 3.6 -28.6 3.6 -39.6 l0 -7.6 -8.7 -0.7 c-9.7 -0.8 -17 -3 -26.4 -7.7 l-6.1 -3.1 -8.7 4.1 c-7.5 3.5 -18.3 7.1 -21.6 7.1 -0.6 0 -2.5 -2.8 -4.1 -6.2 -1.6 -3.4 -5.7 -10.4 -9 -15.4 -7.1 -10.6 -7.2 -10 3.1 -15.2 14.7 -7.4 25.9 -10.2 40.8 -10.2 24.4 0.1 45.5 9.7 61.4 28 30.8 35.6 29 82.6 -4.4 117.4 -15.6 16.2 -42.8 25.3 -67 22.6z"/>
 </g>
 <g fill="#8e5a30">
  <path d="M14.9 111.8 c-7.6 -9.5 -7.1 -8.3 -5 -10.9 2 -2.4 2 -2.4 -1.2 -5.7 l-3.1 -3.2 2.2 -2.2 2.2 -2.2 -2.5 -2.6 c-2.4 -2.5 -2.5 -2.8 -1.1 -6.1 1.3 -3.2 1.2 -5 -1.5 -21 -2 -11.4 -2.8 -18.8 -2.4 -21.4 1 -6.3 10.9 -34.8 12.2 -35.2 0.6 -0.2 2.2 0.7 3.5 2.1 2.5 2.6 24.7 19.7 61.3 47.1 12.7 9.5 23.7 18 24.5 19 1.2 1.5 1.2 1.9 -0.7 3.3 -3 2.5 -25.2 20.6 -29.6 24.3 -3.1 2.6 -8.6 4.7 -29.5 11 -14.1 4.4 -25.7 7.9 -25.8 7.9 0 0 -1.6 -1.9 -3.5 -4.2z"/>
  <path d="M213 110.1 c-27.8 -8.1 -30.1 -9.1 -40.9 -18.4 -7.5 -6.5 -22.2 -18.5 -25 -20.4 -1.1 -0.8 5.7 -6.3 32.9 -26.7 34.8 -26 52 -39.5 52 -40.6 0 -0.8 5.9 -3.5 6.4 -2.9 0.1 0.2 1.7 4.7 3.5 9.9 7.2 20.9 8.4 30.2 5.6 43 -2.1 9.4 -3 23.3 -1.7 25.6 0.9 1.5 0.6 2.4 -1.5 4.6 l-2.7 2.8 2.4 2.5 2.4 2.5 -3.2 3.3 c-3 3.1 -3 3.3 -1.5 5.8 1.5 2.5 1.5 2.8 -2.7 8.3 -3.3 4.4 -4.8 5.6 -6.9 5.6 -1.4 -0.1 -10 -2.2 -19.1 -4.9z"/>
 </g>
 <g fill="#343230">
  <path d="M135.5 189.3 c-6.7 -3.4 -12 -4.4 -14.2 -2.7 -1 0.7 -3.7 1.4 -6 1.4 -3.7 0 -4.3 -0.3 -4.9 -2.5 -0.8 -3.2 -0.5 -3.6 4.8 -4.6 11 -2.1 29.8 0.1 29.8 3.5 0 0.7 0.3 2.8 0.6 4.5 0.6 2.9 0.5 3.1 -2.2 3 -1.6 0 -5.1 -1.2 -7.9 -2.6z"/>
  <path d="M584.5 167.6 c-1.7 -0.7 -4.4 -2.9 -6 -4.7 l-2.8 -3.4 3.8 -0.3 c2.1 -0.2 4.2 0.1 4.8 0.7 0.6 0.6 3.3 0.8 6.7 0.4 8.8 -0.9 13 2.5 7.5 6.1 -3.5 2.3 -10.4 2.9 -14 1.2z"/>
  <path d="M576 150.5 c0 -3.7 6.2 -10.5 9.5 -10.5 1.7 0 -0.2 5.6 -2.2 6.5 -1.2 0.5 -2.3 1.9 -2.5 3 -0.4 2.5 -4.8 3.5 -4.8 1z"/>
  <path d="M92.9 148.5 c-4.7 -1.3 -10 -3 -11.8 -3.7 l-3.2 -1.3 8.5 -4.2 8.6 -4.3 4 8 c2.2 4.4 3.7 8 3.3 7.9 -0.5 0 -4.7 -1.1 -9.4 -2.4z"/>
  <path d="M150 150.2 c0 -0.4 1.6 -3.9 3.7 -7.8 l3.7 -7.1 9.3 4.1 c7.7 3.4 8.9 4.2 7.1 4.9 -5.1 1.8 -23.8 6.5 -23.8 5.9z"/>
  <path d="M592.2 145.5 c-4.4 -5 -2.1 -7.9 4.1 -5.6 3.6 1.4 8 6.3 6.4 7.3 -2.7 1.7 -8.3 0.8 -10.5 -1.7z"/>
  <path d="M592.9 105.7 c-1.9 -1.2 -3.5 -3.3 -3.7 -4.5 -0.3 -1.9 0.1 -2.2 2.8 -2.2 4 0 8.3 2.2 10.4 5.4 2.2 3.5 2.1 3.6 -2.3 3.6 -2.3 0 -5.1 -0.9 -7.2 -2.3z"/>
  <path d="M594.7 86.3 c-0.4 -0.3 -0.7 -2.3 -0.7 -4.4 0 -5 4 -9.9 8.1 -9.9 2.6 0 2.9 0.3 2.9 3 0 4 -2.2 8.3 -5.4 10.4 -2.7 1.7 -3.9 2 -4.9 0.9z"/>
  <path d="M579.9 84.4 c-4.3 -4.9 -5.4 -11.4 -1.9 -11.4 2.2 0 4.4 5.8 3.8 10.4 -0.3 2.7 -0.4 2.8 -1.9 1z"/>
 </g>
 <g fill="#2c2c2c">
  <path d="M106.4 199 c0.3 -1.9 0.8 -6.4 1.2 -9.8 0.5 -5.2 1.1 -6.5 2.8 -7.2 1.6 -0.6 2.3 -0.3 3 1.1 1.2 2.4 2.1 2.4 5.8 -0.3 2.7 -1.8 3.5 -2 6.2 -1 1.8 0.7 4 1.2 4.8 1.2 0.9 0 4.3 1.4 7.6 3 3.4 1.7 6.6 3 7.1 3 0.6 0 1.1 1.5 1.1 3.3 0 1.7 0.3 4.8 0.6 6.7 l0.6 3.5 -20.7 0 -20.7 0 0.6 -3.5z"/>
  <path d="M596.7 164.6 c-1.3 -1 -3.6 -1.2 -7.7 -0.9 -4 0.4 -6.5 0.2 -7.4 -0.6 -0.8 -0.7 -2 -1 -2.5 -0.7 -2.9 1.8 -4.2 -10 -1.7 -14.8 0.7 -1.4 3 -3.9 5.1 -5.6 5 -4 9.2 -4 12.4 0 1.7 2.3 2.9 2.8 4.6 2.4 3.4 -0.9 5.5 2.8 5.5 9.7 0 4.7 -0.5 6.3 -2.6 8.8 -2.9 3.5 -3.2 3.6 -5.7 1.7z"/>
  <path d="M582.4 126.4 c-2.2 -1 -3.5 -2.8 -4.7 -6.2 -2.2 -6 -2.1 -8.7 0.2 -13.9 3.3 -7.2 10.8 -9.4 16.3 -4.7 1.7 1.4 4.4 2.8 6 3.1 3.7 0.7 4.8 2.9 4.8 9.9 0 5.4 -0.2 5.9 -4 9.6 -3.8 3.5 -4.5 3.8 -9.8 3.8 -3.1 0 -7.1 -0.7 -8.8 -1.6z"/>
  <path d="M582.6 86.2 c-3.1 -1.9 -6.6 -9.7 -6.6 -14.7 0 -4 3.2 -9 6.9 -11 3.8 -1.9 11.3 -1.9 15.1 0 6.6 3.4 9.7 12.8 4.8 15 -1.2 0.6 -3 2.2 -4.1 3.7 -1.7 2.3 -1.8 2.9 -0.6 4.4 1.1 1.4 1.1 1.8 -0.6 3 -2.7 2 -11.4 1.8 -14.9 -0.4z"/>
 </g>
</svg>